<svg xmlns="http://www.w3.org/2000/svg" width="32" height="32" viewBox="0 0 272 272">
<defs>
<linearGradient id="g" x1="0" y1="1" x2="1" y2="0">
<stop offset="0" stop-color="#2bbcde"/><stop offset="0.5" stop-color="#3f7af0"/><stop offset="1" stop-color="#8c5dff"/>
</linearGradient>
<filter id="sh" x="-25%" y="-25%" width="150%" height="150%">
<feDropShadow dx="0.6" dy="1.6" stdDeviation="1.2" flood-color="#0a1430" flood-opacity="0.5"/>
</filter>
</defs>
<rect x="0" y="0" width="272" height="272" fill="url(#g)"/>
<g filter="url(#sh)">
<g transform="scale(0.125)">
<g transform="translate(0.000000,2176.000000) scale(0.100000,-0.100000)" fill="#ffffff" stroke="none">
<path d="M12713 15655 c-41 -18 -53 -42 -60 -123 l-5 -67 45 -55 c25 -30 68
-72 96 -93 34 -26 62 -60 87 -105 54 -97 106 -171 156 -222 58 -59 78 -91 113
-174 15 -37 45 -89 65 -115 20 -26 50 -67 65 -91 15 -25 46 -65 67 -90 22 -24
57 -79 80 -122 29 -57 58 -95 105 -138 56 -51 70 -71 109 -161 50 -113 80
-161 144 -229 24 -25 74 -94 112 -154 38 -60 104 -147 148 -193 69 -72 83 -94
111 -168 22 -57 49 -105 80 -143 27 -31 72 -95 101 -142 113 -183 170 -263
217 -306 37 -34 64 -74 115 -172 54 -105 76 -137 119 -174 40 -34 59 -61 75
-102 28 -74 91 -166 167 -246 77 -81 116 -141 146 -227 15 -40 40 -84 64 -112
55 -62 135 -171 135 -183 0 -18 107 -173 162 -233 66 -73 85 -104 133 -218 31
-72 47 -96 87 -130 27 -23 64 -63 83 -89 19 -26 53 -60 76 -75 l41 -27 19 23
c24 29 26 202 5 367 -12 91 -14 436 -14 2076 l0 1967 -25 58 c-14 32 -31 74
-38 93 -12 30 -51 81 -135 172 -15 17 -47 34 -82 44 -31 8 -95 28 -142 42
l-85 27 -1245 -3 c-1097 -3 -1255 -2 -1330 12 -102 19 -125 19 -167 1z"/>
<path d="M5720 15642 c-29 -14 -36 -24 -44 -63 -16 -81 -3 -110 87 -207 45
-49 102 -121 125 -160 24 -40 55 -85 70 -101 103 -107 171 -206 207 -300 18
-49 39 -80 76 -116 60 -59 85 -96 152 -228 29 -58 72 -123 102 -156 80 -87
141 -172 159 -221 27 -70 65 -130 122 -193 28 -32 66 -85 84 -118 18 -33 44
-75 60 -92 15 -18 35 -48 45 -67 9 -19 43 -60 74 -90 43 -43 69 -81 113 -170
39 -79 77 -139 123 -192 41 -48 80 -107 102 -155 45 -99 97 -174 163 -238 57
-56 105 -131 140 -217 16 -42 41 -76 91 -126 43 -43 74 -84 83 -109 21 -60
117 -202 166 -247 42 -39 120 -149 120 -170 0 -42 71 -151 159 -245 16 -17 50
-73 76 -123 59 -114 92 -163 164 -243 37 -41 76 -103 116 -181 47 -94 73 -132
122 -180 40 -40 73 -85 95 -130 50 -103 119 -202 182 -264 46 -44 68 -78 111
-169 40 -82 73 -134 120 -188 47 -54 81 -107 120 -187 54 -113 64 -127 124
-168 36 -24 84 -100 150 -233 23 -47 62 -104 95 -140 33 -36 71 -92 95 -141
38 -77 110 -182 170 -249 48 -53 103 -138 136 -210 23 -48 50 -86 86 -121 52
-48 123 -163 151 -243 7 -20 42 -67 78 -106 101 -108 132 -152 185 -260 34
-70 66 -118 107 -161 35 -37 69 -85 87 -125 46 -101 95 -179 151 -239 55 -58
116 -148 164 -240 16 -30 38 -66 50 -80 54 -62 136 -181 165 -240 51 -100 89
-156 126 -185 19 -14 52 -56 74 -93 22 -37 52 -85 68 -107 16 -22 41 -60 55
-85 15 -25 62 -76 106 -115 43 -38 100 -99 128 -133 103 -132 196 -184 399
-222 28 -5 91 -24 140 -42 l90 -33 1580 -2 c1080 -1 1606 -5 1663 -13 100 -13
138 -4 171 41 57 77 32 155 -91 286 -48 51 -103 122 -130 169 -26 44 -74 113
-108 154 -84 101 -116 149 -140 211 -12 32 -55 96 -105 159 -47 58 -104 138
-126 179 -23 40 -65 99 -93 131 -113 127 -171 218 -212 334 -8 22 -33 60 -55
85 -60 68 -103 127 -156 215 -26 44 -73 107 -104 140 -91 100 -119 141 -143
213 -36 106 -61 148 -120 198 -50 44 -111 131 -201 290 -16 28 -56 79 -91 115
-64 68 -90 110 -118 197 -20 61 -58 116 -136 198 -31 33 -73 92 -93 130 -21
39 -73 111 -118 160 -64 72 -92 115 -141 213 -49 101 -70 131 -112 167 -40 35
-64 69 -111 161 -33 64 -75 133 -94 153 -79 83 -147 183 -196 286 -40 83 -67
126 -113 175 -35 36 -69 85 -79 110 -9 25 -32 65 -50 89 -18 24 -33 50 -33 58
0 7 -31 44 -68 83 -64 65 -126 156 -185 276 -14 28 -50 73 -79 100 -57 52 -63
61 -127 195 -29 59 -64 111 -114 167 -68 75 -111 148 -186 313 -17 36 -32 52
-67 70 -43 23 -50 32 -109 154 -49 102 -74 140 -113 178 -60 57 -135 159 -161
219 -23 54 -82 136 -142 198 -30 31 -55 71 -73 116 -31 76 -113 200 -188 282
-26 30 -58 75 -71 100 -51 103 -101 179 -161 247 -68 76 -84 102 -110 181 -9
29 -26 60 -38 70 -79 72 -213 250 -278 372 -18 34 -55 85 -82 112 -33 34 -63
80 -92 143 -24 50 -68 124 -97 162 -80 103 -142 194 -178 261 -24 45 -68 93
-180 197 -82 77 -155 150 -162 164 -33 62 -162 134 -271 150 -55 8 -162 33
-237 55 l-136 41 -1325 4 c-1070 3 -1338 1 -1390 -10 -75 -15 -271 -6 -405 18
-104 19 -142 19 -185 -3z"/>
<path d="M5782 10792 c-29 -19 -31 -124 -31 -2005 -1 -1062 -4 -2009 -7 -2102
l-7 -171 30 -65 c17 -36 36 -89 42 -117 34 -159 153 -254 366 -292 97 -17 195
-19 1443 -21 l1339 -3 35 22 c86 53 55 180 -74 302 -66 62 -140 167 -167 237
-7 18 -48 65 -90 105 -59 56 -82 85 -96 123 -43 119 -47 126 -238 363 -21 26
-56 84 -78 130 -31 65 -50 90 -89 120 -51 39 -73 75 -131 215 -31 76 -45 92
-131 159 -24 18 -53 61 -86 125 -35 68 -79 130 -141 203 -50 58 -101 127 -114
154 -74 160 -93 190 -152 236 -47 37 -66 61 -105 135 -83 160 -113 209 -172
282 -32 40 -70 98 -85 130 -40 88 -108 186 -159 228 -33 27 -56 59 -84 119
-22 44 -62 108 -90 141 -28 33 -70 83 -94 110 -23 28 -67 97 -97 155 -41 79
-71 121 -125 176 -60 60 -75 83 -93 137 -28 82 -83 167 -151 232 -51 49 -98
128 -136 230 -37 99 -188 234 -232 207z"/>
</g>
</g>
</g>
</svg>
